<?xml version="1.0" encoding="UTF-8"?>
<svg width="305px" height="305px" viewBox="0 0 255 200" version="1.1" xmlns="http://www.w3.org/2000/svg" preserveAspectRatio="xMidYMid">  
<path fill="currentColor" d="M186.379603,92.4020709 L224.865879,114.62108 L224.865879,159.084107 L186.379603,181.303116 L169.294598,171.422722 L127.749927,195.407248 L86.4540783,171.560262 L69.6078929,181.303116 L31.1216177,159.046596 L31.1216177,114.62108 L69.6078929,92.4020709 L108.094168,114.62108 L108.094168,159.046596 L96.4507571,165.779818 L127.749927,183.853863 L159.297919,165.642278 L147.893328,159.046596 L147.893328,114.62108 L186.379603,92.4020709 Z M157.896259,126.199473 L157.896259,153.319918 L181.378138,166.873889 L181.378138,139.753443 L157.896259,126.199473 Z M214.862948,126.161962 L191.381069,139.715932 L191.381069,166.873889 L214.862948,153.282407 L214.862948,126.161962 Z M41.1245482,126.161962 L41.1245482,153.282407 L64.6064277,166.836378 L64.6064277,139.715932 L41.1245482,126.161962 Z M98.0912377,126.161962 L74.6093582,139.715932 L74.6093582,166.836378 L98.0912377,153.282407 L98.0912377,126.161962 Z M186.379603,103.980463 L162.897724,117.534434 L186.379603,131.100908 L209.861483,117.534434 L186.379603,103.980463 Z M69.6078929,103.942952 L46.1260135,117.534434 L69.6078929,131.063397 L93.0897724,117.534434 L69.6078929,103.942952 Z M88.7510013,35.0227606 L88.7510013,46.5636417 L53.1405685,67.1321676 L53.1405685,101.904855 L43.137638,107.681547 L43.137638,61.3554752 L88.7510013,35.0227606 Z M127.237277,0 L165.748559,22.2190095 L165.748559,34.4375891 L212.362215,61.3554752 L212.362215,107.393963 L202.359285,101.617271 L202.359285,67.1321676 L165.748559,45.9909739 L165.748559,66.6570284 L127.262284,88.8760379 L88.7760086,66.6570284 L88.7760086,22.2190095 L127.237277,0 Z M98.7789391,33.7598906 L98.7789391,60.880336 L122.235811,74.4343069 L122.235811,47.3263651 L98.7789391,33.7598906 Z M155.720621,33.7598906 L132.263749,47.3263651 L132.263749,74.4218033 L155.720621,60.880336 L155.720621,33.7598906 Z M127.237277,11.5533848 L103.780404,25.1073557 L127.237277,38.6613266 L150.719156,25.1073557 L127.237277,11.5533848 Z" ></path>
</svg>
